<svg width="564" height="482" viewBox="0 0 564 482" fill="none" xmlns="http://www.w3.org/2000/svg">
<path fill-rule="evenodd" clip-rule="evenodd" d="M487.741 104.463C483.891 101.213 477.716 101.279 469.481 104.695C466.223 106.033 459.974 109.849 456.85 112.357C449.957 117.918 443.401 124.763 432.384 137.902C427.177 144.142 425.894 145.621 424.283 147.371C422.879 148.898 420.077 151.405 419.785 151.4C419.328 151.387 419.418 151.023 419.911 150.738C421.946 149.563 425.502 145.582 432.234 136.961C441.014 125.668 443.909 122.103 453.279 110.873C459.887 102.959 461.915 100.01 463.162 96.5302C464.965 91.4938 463.435 88.463 459.224 88.6889L457.795 88.7746L454.374 90.7496C451.293 92.5519 450.763 92.9152 449.055 94.5365C445.573 97.8055 442.467 101.746 439.924 106.101C438.624 108.33 435.477 114.639 431.573 122.816C429.048 128.143 425.719 134.037 422.888 138.234C421.543 140.224 420.389 141.825 420.317 141.82C420.247 141.78 420.835 140.378 421.666 138.697C422.482 136.991 423.943 133.78 424.908 131.572C426.637 127.606 429.991 120.716 435.3 110.272C436.785 107.325 438.524 103.896 439.166 102.648C442.392 96.2357 444.75 89.4591 444.593 86.9282C444.245 81.5056 438.149 82.0463 431.973 88.0486C426.779 93.1138 423.071 100.37 421.005 109.473C419.393 116.5 418.25 122.98 417.488 129.32C416.881 134.209 416.492 136.696 415.959 138.932C415.483 140.928 414.061 144.485 413.637 144.73C413.49 144.815 413.018 145.319 412.563 145.87C411.453 147.227 410.804 149.484 410.654 152.503C410.458 156.265 410.418 156.415 409.132 156.927C408.068 157.345 400.596 161.243 385.209 169.411C380.55 171.882 376.679 173.897 376.629 173.891C376.474 173.842 380.627 168.996 384.862 164.311C391.235 157.249 393.834 153.831 396.331 149.156C400.474 141.452 402.193 132.469 401.618 121.613C401.356 116.579 400.855 113.832 399.94 112.247C399.35 111.225 399.214 111.13 398.413 110.981C397.339 110.781 397.339 110.781 394.598 114.534C393.427 116.146 391.492 118.475 390.317 119.719C383.581 126.772 381.559 130.11 379.423 137.73C377.898 143.148 377.28 147.258 376.59 157.124C375.987 165.359 374.98 168.735 371.054 175.435L369.744 177.646L363.064 181.676C354.94 186.564 346.659 191.841 337.835 197.778L336.319 198.792L337.824 196.699C338.66 195.547 340.338 193.193 341.583 191.469C344.761 187.013 346.705 184.02 347.778 181.899C350.134 177.26 351.681 170.339 352.798 159.614C353.347 154.285 353.73 151.628 354.336 148.957C354.804 146.909 354.562 146.09 353.465 146.03C352.881 145.998 352.673 146.118 351.592 146.985C350.931 147.54 349.138 148.794 347.617 149.8C343.282 152.672 340.988 154.839 339.211 157.782C338.767 158.512 338.38 159.081 338.343 159.057C338.31 159.041 337.83 158.729 337.27 158.36C335.633 157.284 333.525 156.873 330.783 157.082C327.997 157.259 325.306 157.877 322.561 158.942C319.597 160.088 313.98 163.18 310.2 165.733C304.849 169.365 294.154 175.32 292.069 175.808C291.879 175.86 291.504 175.73 291.256 175.561L290.77 175.218L296.468 171.928C305.657 166.623 311.076 163.01 318.302 157.325C328.931 148.995 335.005 142.336 337.683 136.055C339.7 131.288 338.981 128.123 335.666 127.001C334.252 126.512 332.934 126.488 330.82 126.888C328.09 127.379 326.644 127.995 322.669 130.29C318.486 132.705 316.973 133.924 312.954 138.023C310.79 140.254 303.969 148.06 301.81 150.82C298.974 154.408 294.251 161.269 290.94 166.633C289.994 168.195 289.163 169.495 289.128 169.515C289.068 169.55 288.783 169.437 288.496 169.28C287.946 169.008 287.946 169.008 288.855 167.941C289.347 167.334 291.561 164.208 293.773 160.979C302.311 148.429 304.635 145.113 309.352 138.844C316.918 128.749 320.994 122.008 323.353 115.715C325.375 110.275 324.835 107.261 321.72 106.346C317.885 105.223 313.103 107.961 306.383 115.121C300.939 120.931 296.179 128.148 292.862 135.663C290.106 141.908 286.951 151.524 284.054 162.526C282.336 168.991 282.137 169.626 281.63 169.768C281.088 169.908 281.06 169.901 281.11 169.307C281.117 168.979 281.244 168.64 281.357 168.575C281.651 168.405 282.153 166.314 282.78 162.499C284.14 154.336 287.048 145.971 294.288 129.412C299.73 116.918 300.5 114.972 301.872 110.127C304.151 102.056 303.707 98.1668 300.364 97.0368C298.843 96.5412 297.369 96.8492 295.119 98.1715C291.968 100.014 289.182 103.008 286.662 107.223C281.87 115.243 279.147 123.767 277.753 135.253C277.353 138.52 276.83 146.374 276.653 151.626C276.601 153.238 276.534 154.581 276.5 154.601C276.456 154.626 276.367 154.032 276.297 153.31C276.216 152.571 275.971 150.565 275.735 148.877C274.799 142.096 274.644 135.327 275.252 127.921C275.503 124.635 275.868 122.207 277.5 113.355C279.076 104.524 279.292 101.778 278.617 98.8887C278.078 96.6362 276.474 94.4566 274.988 93.9633C273.978 93.6342 272.204 93.9422 270.914 94.6872C269.433 95.5422 268.727 96.2387 267.551 98.0028C263.272 104.492 261.425 114.392 262.596 124.5C263.261 130.352 265.823 140.27 269.821 152.614C270.883 155.893 271.846 159.021 271.961 159.52L272.146 160.441L271.799 159.66C271.616 159.222 270.598 157.2 269.566 155.152C267.235 150.574 266.26 148.447 263.679 142.396C261.131 136.443 259.721 133.7 257.739 130.827C254.069 125.451 251.005 123.444 248.641 124.809C247.472 125.484 246.703 126.713 246.363 128.423C245.951 130.45 245.987 132.011 246.545 134.679C247.126 137.566 247.696 139.073 249.201 141.679C250.896 144.615 252.846 147.092 257.952 152.735C265.267 160.786 267.834 163.773 270.151 166.846L271.251 168.29L270.819 170.063C269.937 173.655 269.884 177.243 270.616 181.751C271.164 185.06 271.211 185.702 271.223 187.543C271.204 189.009 271.134 189.269 270.488 189.988C269.477 191.138 267.978 194.821 266.06 200.859C263.925 207.541 262.137 215.606 260.181 227.416L259.994 228.633L259.638 226.817C259.453 225.816 259.05 224.097 258.764 223.003C257.676 218.897 257.133 217.698 253.358 210.859L249.776 204.394L250.433 201.613C250.812 200.089 251.196 198.194 251.3 197.394C251.48 195.986 251.289 193.995 250.914 193.345C250.799 193.146 251.068 192.494 251.737 191.472C253.447 188.753 255.365 184.736 255.747 183.037C256.258 180.722 256.061 178.641 255.217 177.119C254.66 176.114 254.442 175.916 253.834 175.724C252.788 175.393 251.639 176.102 250.564 177.739C249.406 179.493 248.683 182.301 248.243 186.7C248.22 187.06 248.131 186.465 248.058 185.399C247.093 171.648 243.955 163.553 239.234 162.595C237.398 162.235 235.692 163.381 235.236 165.331C234.926 166.595 235.144 170.291 235.642 172.394C236.042 174.207 237.9 178.665 240.096 183.148C240.966 184.955 241.671 186.476 241.656 186.531C241.633 186.591 240.993 185.563 240.213 184.212C237.883 180.176 233.697 174.625 230.656 171.578C226.712 167.608 223.232 165.899 221.311 166.973C219.753 167.873 219.494 169.385 220.375 172.571C220.828 174.215 221.161 174.912 222.638 177.431C224.468 180.6 226.397 182.962 229.291 185.633C229.983 186.273 230.518 186.819 230.483 186.839C230.448 186.859 230.041 186.632 229.579 186.333C229.094 186.013 227.46 185.062 225.92 184.196C222.93 182.516 220.444 181.711 219.258 182.096C218.287 182.414 217.638 183.551 217.716 184.845C217.824 186.953 219.509 189.11 223.025 191.641C226.36 194.057 228.776 195.203 233.158 196.472C237.939 197.834 239.871 198.739 241.196 200.214C242.353 201.498 243.872 202.549 246.418 203.758C248.499 204.762 248.484 204.736 249.492 207.064C249.85 207.943 251.11 210.506 252.258 212.753C255.625 219.366 256.946 223.094 258.439 230.339L259.259 234.38L258.48 239.691C258.068 242.597 257.435 246.541 257.096 248.434C256.451 252.017 254.484 259.63 253.618 261.99L253.112 263.333L253.139 261.92C253.18 259.471 252.569 256.452 251.125 252.032C250.095 248.828 249.722 246.941 249.38 243.19C248.866 237.378 248.408 235.645 246.402 231.792C241.007 221.466 231.025 214.597 220.571 214.05C218.35 213.924 215.35 214.328 214.424 214.863C213.61 215.333 213.183 216.434 213.568 217.101C213.698 217.326 215.11 218.832 216.72 220.419C221.415 225.133 221.305 224.942 224.604 232.656C226.642 237.426 229.027 241.777 230.81 244.004C233.026 246.743 237.171 250.123 242.664 253.637C245.685 255.589 246.52 256.215 247.367 257.262C248.826 259.029 249.857 261.274 250.722 264.574C251.305 266.824 251.416 267.476 251.197 268.076C250.891 268.887 248.182 274.054 247.435 275.201C246.757 276.285 232.007 291.118 221.848 300.943C203.456 318.767 194.478 326.595 181.781 335.924C175.289 340.699 172.867 342.305 166.597 345.925C159.168 350.237 154.708 352.293 145.281 355.784C141.582 357.158 135.106 359.361 134.901 359.306C134.856 359.309 135.518 358.534 136.367 357.605C139.534 354.091 143.298 347.749 145.282 342.585C145.993 340.697 146.309 340.145 147.121 339.411C147.646 338.9 148.769 337.685 149.633 336.702L151.188 334.915L155.039 334.065C169.547 330.874 171.554 330.211 178.604 326.141C189.783 319.664 195.515 314.253 201.585 304.386C204.431 299.775 204.608 299.061 203.051 298.505C202.434 298.296 201.979 298.408 199.492 299.301C193.995 301.32 194.217 301.284 182.054 302.637C176.715 303.249 173.71 304.325 168.713 307.43C163.931 310.387 160.726 313.196 157.716 317.082C154.562 321.119 152.214 325.512 150.947 329.719C150.281 331.905 149.92 332.76 148.986 334.061C148.362 334.941 147.755 335.73 147.652 335.79C147.539 335.855 147.629 335.111 147.858 334.147C149.626 326.371 150.084 315.103 149.082 304.307C147.944 291.997 148.066 290.368 150.384 287.944C154.459 283.721 159.435 280.201 163.88 278.42L165.985 277.585L168.351 278.263C169.655 278.642 172.685 279.71 175.044 280.635C177.443 281.57 180.151 282.501 181.097 282.74C184.765 283.613 190.199 283.385 196.436 282.048C203.215 280.628 211.733 276.842 219.106 271.973C221.439 270.453 222.167 269.755 222.142 269.112C222.104 268.025 221.475 267.696 219.302 267.692C216.866 267.712 213.551 267.132 207.968 265.702C204.788 264.894 201.192 264.106 199.991 263.945C188.83 262.514 178.034 265.594 168.693 272.835C166.076 274.842 165.887 274.975 163.562 275.948C158.867 277.896 154.976 280.477 151.888 283.669C151.19 284.419 150.54 285.013 150.475 284.981C150.298 284.934 151.653 281.461 152.634 279.44C153.696 277.279 155.855 273.839 157.68 271.399L159.083 269.55L163.216 268.769C165.479 268.328 168.456 267.764 169.834 267.511C182.702 265.14 196.69 250.228 201.267 234.075C202.838 228.457 203.202 221.907 202.057 219.463C201.6 218.491 201.48 218.364 200.811 218.184C200.365 218.072 199.838 218.099 199.543 218.269C199.266 218.429 197.324 220.486 195.213 222.848C189.398 229.358 189.33 229.42 182.464 233.927C175.563 238.454 172.898 240.639 169.486 244.549C165.865 248.718 162.602 254.724 160.003 261.964C158.876 265.131 158.616 265.582 155.633 269.694C152.001 274.724 150.366 277.793 148.349 283.518L147.923 284.7L147.896 282.994C147.817 278.618 148.256 271.217 148.944 265.369C149.735 258.619 151.529 249.986 153.272 244.545C154.629 240.356 154.742 240.071 158.294 232.224C161.076 226.102 161.268 225.715 162.23 224.94C162.804 224.516 164.439 223.168 165.898 222.014C169.577 219.047 172.184 217.322 177.307 214.515C188.336 208.459 195.998 201.01 202.582 189.853C205.768 184.492 208.837 176.946 210.737 169.857C211.816 165.746 211.569 164.238 209.752 164.132C209.24 164.104 208.891 164.26 208.184 164.795C203.44 168.319 199.105 170.891 194.312 173.069C187.373 176.21 183.713 178.45 179.623 182.047C176.075 185.181 173.21 188.879 170.225 194.228C167.629 198.833 166.437 202.188 163.298 213.55L160.977 221.91L159.133 225.077C157.106 228.545 152.951 236.809 151.368 240.507C150.826 241.789 149.836 244.774 149.193 247.12L147.99 251.417L147.63 250.493C147.438 249.981 147.068 248.739 146.802 247.738L146.359 245.892L148.249 239.005C150.176 232.003 150.736 228.793 150.915 224.002C151.136 217.085 149.663 208.594 147.126 202.16C146.378 200.305 145.738 199.116 143.809 195.934C139.681 189.265 136.618 186.08 130.132 181.765C124.961 178.33 122.066 177.195 120.937 178.159C119.856 179.106 119.977 179.776 121.97 184.248C124.865 190.763 125.486 193.638 126.265 204.089C126.952 212.918 127.842 217.658 129.802 222.774C131.56 227.359 132.758 229.773 135.203 233.708C137.748 237.816 138.51 238.877 141.504 242.402C143.529 244.79 143.549 244.824 144.074 246.473C144.379 247.382 144.632 248.321 144.632 248.541C144.639 249.033 146.298 253.087 146.903 254.134C147.278 254.784 147.266 255.242 146.695 258.354C145.542 264.816 144.712 273.759 144.641 280.856C144.581 285.151 145.168 296.729 145.791 303.748C146.266 308.97 146.552 314.405 146.366 315.124C146.359 315.232 145.575 313.953 144.659 312.288C143.574 310.328 142.595 308.791 141.886 307.965L140.823 306.662L141.028 304.638C141.515 300.142 141.83 293.968 141.677 292.082C141.305 287.758 140.194 283.793 138.175 279.577C136.091 275.227 133.118 270.858 129.694 267.107C124.146 261.038 114.966 255.438 107.762 253.72C104.395 252.927 102.963 253.407 103.079 255.269C103.135 256.125 103.22 256.273 105.357 259.254C108.254 263.331 111.526 268.959 112.867 272.261C114.074 275.213 114.68 276.861 116.156 281.459C116.759 283.363 117.642 285.832 118.115 286.991C119.275 289.82 121.866 294.248 123.434 296.125C125.776 298.941 129.73 302.189 134.95 305.63C136.214 306.459 137.6 307.46 138.022 307.852C139.322 308.983 141.367 311.625 142.617 313.79L143.782 315.808L142.143 315.669C141.259 315.578 139.72 315.613 138.753 315.698C137.221 315.843 136.511 315.734 132.791 314.752C128.307 313.565 126.548 313.298 123.281 313.279C117.713 313.296 111.757 315.199 108.531 318.031C106.914 319.45 105.363 321.604 104.58 323.488C103.807 325.389 102.442 333.925 102.817 334.575C103.327 335.458 103.711 335.363 105.664 333.866C108.291 331.876 110.698 330.544 112.154 330.246C112.813 330.108 115.234 329.842 117.5 329.666C122.087 329.292 124.308 328.898 126.846 327.953C131.243 326.35 134.387 323.715 136.643 319.803C137.249 318.713 137.843 317.782 137.956 317.717C138.337 317.497 142.876 317.959 143.933 318.33C145.087 318.749 145.285 319.051 145.896 321.389C146.728 324.591 144.509 336.207 141.834 342.774C138.903 349.917 134.151 356.587 129.347 360.226L127.791 361.39L123.473 362.451C117.646 363.899 114.075 364.575 105.261 365.888C96.7542 367.173 78.7982 369.573 75.8386 369.827C74.7649 369.927 73.631 370.143 73.3279 370.318C72.2367 370.948 72.3179 372.748 73.4621 373.45C73.6897 373.585 74.5336 373.686 75.3881 373.666C77.8141 373.628 96.2734 371.181 110.343 369.05L114.264 368.461L119.922 369.582C125.009 370.571 137.176 372.646 140.334 373.016C141.413 373.144 141.64 373.278 142.178 373.949C142.5 374.387 143.522 375.517 144.427 376.485C146.004 378.137 146.137 378.326 146.944 380.204C147.431 381.309 148.751 384.195 149.88 386.65C151.017 389.099 153.053 393.767 154.376 396.998C155.714 400.255 157.395 404.066 158.124 405.469C160.647 410.259 164.879 415.529 170.619 421.072C179.351 429.495 186.07 434.033 194.378 437.204C195.795 437.737 198.071 438.64 199.441 439.211C202.524 440.491 203.443 440.723 204.031 440.383C205.149 439.738 205.133 438.731 203.973 436.722C202.998 435.033 201.785 431.692 200.166 426.287C196.583 414.222 194.807 410.686 188.565 403.194C183.018 396.547 177.553 391.561 171.134 387.323C167.921 385.218 164.678 383.66 158.063 381.083C154.907 379.856 151.591 378.434 150.714 377.935C149.148 377.061 146.327 374.937 145.455 373.986L145.025 373.541L145.937 373.58C146.423 373.623 146.941 373.74 147.103 373.9C147.259 374.03 147.615 374.067 147.91 373.977C148.209 373.897 150.543 374.039 153.091 374.311C158.199 374.838 169.786 375.769 173.264 375.932C177.582 376.152 191.636 376.133 196.434 375.903C199.113 375.765 201.259 375.761 201.204 375.886C200.947 376.381 205.595 380.452 208.866 382.617C212.359 384.907 216.586 386.369 222.783 387.502C228.545 388.541 240.67 389.242 246.603 388.9C250.705 388.644 257.613 387.37 266.197 385.277C269.428 384.474 272.743 383.715 273.577 383.58C275.543 383.265 276.305 382.825 276.357 381.975C276.404 381.116 275.987 380.734 273.977 379.873C270.55 378.376 268.786 377.421 264.594 374.76C252.145 366.878 246.147 364.81 235.789 364.948C227.779 365.035 218.061 367.343 206.48 371.904C204.326 372.733 202.155 373.512 201.663 373.6C201.198 373.695 198.661 373.601 196.038 373.418C191.184 373.091 185.797 372.899 177.798 372.806C173.991 372.752 160.144 371.867 159.179 371.616C158.769 371.506 165.121 370.449 172.726 369.36C176.178 368.88 180.121 368.209 181.49 367.88C189.699 365.958 195.515 362.912 199.832 358.33C205.616 352.127 211.34 340.982 209.95 338.574C209.835 338.375 209.401 338.083 208.998 337.946L208.256 337.681L203.534 340.361C198.251 343.331 196.37 344.174 190.199 346.224C183.84 348.371 181.184 349.489 177.572 351.574C173.078 354.169 170.336 356.341 163.224 362.942C158.475 367.358 156.142 369.097 153.39 370.27L151.823 370.956L146.507 370.468C140.178 369.885 122.154 367.208 122.236 366.849C122.269 366.807 123.617 366.421 125.281 366.003C133.592 363.918 142.278 361.143 149.86 358.175C160.075 354.148 166.55 350.883 174.438 345.705C177.849 343.494 177.935 343.444 182.284 341.695C186.579 339.954 188.317 339.124 198.928 333.564C204.08 330.866 207.5 329.331 211.653 327.845C214.54 326.825 221.151 324.855 225.294 323.791C227.492 323.238 227.755 323.213 228.097 323.605C229.932 325.663 231.786 327.075 235.436 329.217C239.071 331.333 240.641 332.552 246.303 337.62C254.117 344.574 258.163 347.642 262.26 349.618C263.007 349.972 263.594 350.349 263.59 350.421C263.564 350.517 261.051 349.924 258.028 349.129C247.739 346.386 242.496 343.466 237.238 337.599C235.969 336.161 235.179 335.012 232.376 330.418C229.194 325.166 228.322 323.995 227.863 324.26C227.603 324.41 228.691 327.835 229.776 330.234C231.049 333.078 233.759 337.333 235.59 339.405C237.41 341.437 240.052 343.792 242.198 345.29C247.243 348.808 256.197 351.976 265.489 353.551C271.532 354.577 271.964 354.547 272.271 353.377C272.488 352.593 272.078 351.964 270.946 351.382C268.21 349.924 266.646 348.195 263.274 342.913C259.864 337.608 258.119 335.185 256.497 333.536C252.386 329.316 244.611 325.248 236.145 322.885C234.386 322.399 233.222 321.962 233.478 321.907C236.368 321.231 246.773 320.154 251.128 320.077C255.551 320.017 266.2 320.901 267.996 321.493C268.508 321.659 268.593 321.806 269.725 324.408C270.376 325.915 271.369 328.575 271.932 330.27C272.89 333.17 273.11 333.631 275.095 337.07C277.35 340.975 278.64 342.748 282.086 346.578C289.282 354.641 296.083 359.12 306.833 362.901C310.428 364.187 311.032 364.253 311.651 363.446C312.158 362.783 312.115 362.67 310.423 359.478C309.508 357.754 308.547 355.55 307.5 352.656C305.627 347.571 303.748 343.817 301.879 341.421C299.392 338.192 295.946 334.904 292.268 332.213C290.498 330.948 289.614 330.396 282.429 326.231C280.439 325.105 278.812 324.127 278.767 324.049C278.737 323.997 282.947 325.089 288.153 326.506C293.335 327.902 299.395 329.437 301.641 329.907C303.882 330.369 307.121 331.12 308.871 331.53C310.599 331.964 312.58 332.356 313.229 332.42L314.433 332.545L318.144 335.852C320.163 337.689 322.555 339.691 323.424 340.298C326.603 342.504 331.432 344.508 337.091 345.929C341.877 347.138 344.811 347.441 349.608 347.189C357.344 346.787 363.804 345.598 370.652 343.319C373.524 342.353 380.309 339.625 381.698 338.87C383.233 338.029 383.641 337.355 383.136 336.481C382.776 335.857 382.161 335.692 377.977 335.025C373.738 334.343 370.36 333.372 365.028 331.277C358.778 328.812 354.893 327.903 349.146 327.549C342.436 327.127 337.728 327.432 328.03 328.955C321.387 330.008 318.728 330.284 315.591 330.271C313.136 330.257 312.404 330.09 303.293 327.729C294.389 325.388 293.737 325.198 295.219 325.185C304.114 325.131 312.92 322.564 319.207 318.172C326.573 313.03 331.793 307.453 331.36 305.163C331.089 303.714 329.88 303.419 327.37 304.152C324.171 305.11 320.872 305.756 316.99 306.254C312.142 306.836 309.792 307.246 307.043 308.024C301.735 309.53 294.843 312.874 290.337 316.088C287.312 318.25 282.478 321.076 281.289 321.358C280.64 321.513 279.251 321.287 275.691 320.421C270.158 319.078 266.823 318.521 261.999 318.026C257.171 317.523 253.144 317.389 249.078 317.565C247.183 317.643 245.706 317.665 245.784 317.62C245.879 317.565 247.175 317.209 248.663 316.847C258.838 314.251 266.629 310.365 274.644 303.867C280.412 299.198 287.511 291.334 288.169 288.853C288.381 288.061 288.034 287.199 287.359 286.931C286.652 286.646 285.818 286.781 281.75 287.975C278.918 288.79 276.016 289.403 271.905 290.103C268.679 290.637 264.811 291.416 263.291 291.843C258.643 293.152 254.117 295.315 249.359 298.512C244.354 301.864 242.604 303.393 236.754 309.381C230.776 315.546 227.984 317.85 223.237 320.568C219.487 322.733 219.347 322.791 213.276 324.795C207.042 326.858 200.446 329.973 192.011 334.843C188.166 337.063 184.626 338.911 184.678 338.662C184.702 338.624 186.208 337.432 188.041 336.027C196.972 329.196 205.429 321.843 217.512 310.433C220.428 307.663 221.622 306.651 223.321 305.554C226.857 303.259 230.251 300.537 237.064 294.537C250.259 282.912 257.887 276.984 269.149 269.57C272.647 267.249 282.896 261.46 283.85 261.232C284.149 261.152 284.534 261.357 284.966 261.766C285.341 262.115 287.283 263.419 289.252 264.649C294.003 267.598 294.591 268.056 297.544 270.912C301.908 275.17 304.741 277.218 309.768 279.685C317.525 283.52 324.151 285.596 333.694 287.165C338.512 287.951 349.331 289.429 349.946 289.374C351.152 289.244 351.408 287.687 350.349 286.913C350.059 286.711 348.555 285.905 346.971 285.122C341.877 282.578 339.443 280.762 334.178 275.603C326.755 268.307 322.268 265.194 315.347 262.527C309.159 260.13 298.637 258.445 292.034 258.747C289.68 258.871 289.298 258.849 290.067 258.601C290.362 258.512 291.97 257.918 293.646 257.32C300.204 254.919 307.714 253.147 316.406 251.881C330.665 249.838 340.334 249.925 350.983 252.171C353.067 252.62 355.824 253.176 357.124 253.407C359.764 253.88 360.878 254.23 361.328 254.709C361.495 254.878 361.984 256.224 362.403 257.691C363.347 261.107 365.328 266.037 366.276 267.418C367.162 268.754 368.304 269.492 369.804 269.769L370.942 270.001L370.873 270.722C370.592 273.875 371.864 279.457 373.952 284.314C375.207 287.168 378.644 292.701 380.764 295.253C384.993 300.317 388.851 303.54 393.246 305.713C397.193 307.649 400.018 308.062 401.949 306.947C403.041 306.317 403.569 305.573 403.878 304.228C404.317 302.428 403.979 300.602 402.712 297.927C401.406 295.206 398.155 291.575 391.375 285.351C389.346 283.497 387.702 281.929 387.699 281.884C387.719 281.839 388.993 282.766 390.537 283.941C396.491 288.494 404.027 293.126 408.458 294.98C415.54 297.946 423.183 298.025 426.512 295.191C431.068 291.302 428.287 284.986 419.225 278.729C415.2 275.937 411.33 273.934 406.417 272.105C405.144 271.64 399.201 269.886 393.207 268.266C383.797 265.685 380.072 264.534 379.802 264.066C379.772 264.014 379.884 263.868 380.074 263.758C380.274 263.643 381.197 263.884 382.364 264.365C385.225 265.519 392.137 267.452 396.502 268.292C401.335 269.243 413.738 271.285 416.886 271.638C424.362 272.507 433.292 272.374 438.376 271.32C440.385 270.9 440.779 270.742 442.979 269.472C445.327 268.139 445.421 268.062 446.081 266.965C447.882 263.985 446.471 260.481 442.409 257.745C436.902 254.066 428.513 252.916 415.513 254.06C411.261 254.436 406.539 255.096 399.135 256.333C393.249 257.318 388.339 257.832 384.32 257.832C383.11 257.837 382.119 257.82 382.099 257.786C382.079 257.751 382.968 257.63 384.112 257.513C385.231 257.41 387.151 257.236 388.368 257.123C389.593 257.004 391.965 256.674 393.651 256.393C395.309 256.106 398.561 255.579 400.871 255.239C416.991 252.779 432.261 248.928 437.215 246.068C440.765 244.018 441.993 241.485 440.583 239.043C439.793 237.674 438.414 236.866 435.804 236.225C431.777 235.27 427.123 235.29 422.096 236.322C417.298 237.291 414.161 238.478 403.995 243.17C398.014 245.93 394.438 247.498 391.578 248.583C389.424 249.412 385.954 250.502 385.984 250.335C386.016 250.27 387.243 249.735 388.727 249.144C394.11 247.029 396.138 246.101 405.568 241.615C418.541 235.464 418.636 235.409 421.572 233.414C425.749 230.61 427.422 228.628 427.646 226.235C427.71 225.205 427.655 224.971 426.895 223.655C426.105 222.287 425.997 222.199 424.701 221.573C421.551 220.078 416.789 220.391 411.885 222.437C408.778 223.734 402.324 228.096 398.087 231.777C397.375 232.385 396.714 232.939 396.602 233.004C396.489 233.069 397.133 232.005 398.036 230.629C401.024 226.064 402.314 222.778 402.155 220.203C401.906 216.351 398.263 214.482 393.97 216.026C391.57 216.869 389.163 219.101 387.568 221.938C387.127 222.713 385.952 225.539 384.964 228.188C383.971 230.828 382.831 233.853 382.434 234.926C382.031 235.967 381.384 237.506 380.998 238.318C380 240.349 377.536 243.862 375.973 245.515L374.652 246.866L372.975 247.361C370.639 248.075 367.7 249.425 365.809 250.69C363.632 252.12 363.14 252.208 361.939 251.447C360.602 250.591 351.769 248.531 345.819 247.706C338.761 246.722 328.922 246.78 320.657 247.845C316.092 248.437 319.815 247.326 328.298 245.558C338.515 243.435 341.929 242.249 348.016 238.712C356.926 233.545 361.172 228.599 363.242 221.064C364.419 216.782 364.36 213.86 363.072 211.59C362.392 210.412 362.293 210.32 361.439 210.12C360.281 209.876 359.535 210.284 356.176 212.985C352.859 215.639 347.914 218.494 342.9 220.65C331.697 225.467 325.704 228.846 321.134 232.951C317.135 236.565 314.679 239.311 311.494 243.794C308.523 247.968 306.96 249.841 306.201 250.106C305.899 250.223 304.121 250.683 302.288 251.129C296.841 252.473 290.33 254.696 283.87 257.468C279.751 259.234 268.952 265.469 263.796 269.058C257.938 273.132 252.721 277.056 248.597 280.454C246.459 282.231 244.69 283.645 244.645 283.648C244.522 283.615 258.428 269.72 263.154 265.167C265.498 262.867 269.099 259.483 271.129 257.619C273.18 255.753 278.621 250.776 283.242 246.56C302.961 228.513 314.835 218.621 329.804 207.808C339.385 200.902 353.158 191.738 354.203 191.608C354.662 191.562 355.21 191.812 356.413 192.676C361.339 196.148 367.485 198.812 372.78 199.704C380.47 201.003 387.903 200.938 395.108 199.457C396.719 199.127 401.168 197.933 404.98 196.817C408.819 195.686 413.14 194.531 414.588 194.238C420.136 193.147 420.285 192.126 415.275 189.268C405.853 183.888 400.884 182.242 393.781 182.198C388.495 182.144 383.061 183.111 375.693 185.39C369.06 187.441 363.868 188.788 360.661 189.253C356.345 189.898 356.39 189.976 359.666 187.911C366.99 183.255 380.936 175.55 402.284 164.367C404.777 163.044 407.88 161.379 409.179 160.629L411.526 159.274L412.641 160.305C413.235 160.874 414.505 162.335 415.465 163.536C418.144 166.897 419.529 167.875 421.671 167.966C422.839 168.008 422.839 168.008 423.548 169.157C424.69 170.935 426.749 173.302 428.757 175.099C431.558 177.65 437.101 182.291 439.277 183.921C450.951 192.7 464.24 197.337 475.209 196.477C478.256 196.254 480.197 195.676 481.883 194.575C485.493 192.168 485.781 187.567 482.517 184.094C478.617 179.96 469.33 176.593 456.445 174.656C441.572 172.435 436.617 171.254 429.55 168.233C426.634 166.983 424.805 165.834 426.924 166.585C437.467 170.324 450.867 173.534 460.118 174.579C468.399 175.502 475.975 175.343 483.758 174.024C490.501 172.903 493.902 171.874 497.798 169.821C500.356 168.472 500.605 168.304 501.281 167.395C504.168 163.534 500.955 158.969 494.083 157.186C490.3 156.195 484.426 155.96 476.511 156.431C470.338 156.819 465.328 157.541 456.374 159.374C452.503 160.188 447.895 161.047 446.15 161.304C440.874 162.087 433.719 162.373 428.035 162.029C425.575 161.867 424.918 161.75 424.81 161.443C424.725 161.076 424.777 161.046 425.684 161.157C430.556 161.855 439.632 161.476 446.201 160.293C452.013 159.259 460.78 156.784 467.18 154.37C474.48 151.634 485.567 146.318 490.457 143.206C495.238 140.168 497.612 137.62 498.183 134.889C499.015 130.99 496.037 128.311 491.024 128.468C487.202 128.608 480.823 129.9 476.05 131.513C469.327 133.789 465.877 135.493 451.708 143.592C439.72 150.467 438.251 151.223 432.021 153.712C427.431 155.542 426.094 155.967 425.829 155.728C425.64 155.56 425.76 155.467 426.291 155.288C427.067 155.013 459.156 137.052 468.96 131.392C480.696 124.639 486.251 119.781 488.883 114C490.574 110.31 490.116 106.476 487.741 104.463ZM487.132 109.088C487.426 112.636 484.059 117.525 478.161 122.13C474.117 125.285 471.921 126.622 451.833 138.047C434.15 148.141 431.502 149.693 428.553 151.765C426.725 153.04 425.107 154.216 424.967 154.355C424.816 154.534 424.502 154.45 424.049 154.145L423.363 153.676L424.714 152.896C429.321 150.236 433.48 146.899 440.416 140.274C445.659 135.295 447.691 133.533 452.095 130.182C456.994 126.488 459.813 124.49 463.289 122.311C465.159 121.15 466.648 120.129 466.603 120.051C466.323 119.566 457.646 124.656 452.829 128.153C446.512 132.712 443.069 135.509 438.381 139.948C432.301 145.698 429.906 147.669 424.952 151.049C422.627 152.622 422.281 152.822 421.871 152.713C421.311 152.563 421.318 152.535 423.367 150.983C425.414 149.409 427.827 146.849 433.058 140.769C448.675 122.538 455.718 115.677 464.332 110.358C468.303 107.915 471.042 106.68 475.091 105.532C479.456 104.293 482.924 104.439 485.187 105.938C486.459 106.762 487.022 107.696 487.132 109.088ZM495.41 134.746C494.567 137.185 492.577 138.899 486.15 142.587C478.728 146.872 469.581 151.009 462.009 153.534C453.87 156.235 447.149 157.875 441.754 158.45C437.953 158.866 425.462 159.612 425.527 159.424C425.531 159.352 426.55 159.237 427.759 159.151C432.095 158.842 440.514 156.764 446.328 154.573C454.831 151.361 466.172 145.703 470.538 142.466C471.383 141.829 472.112 141.212 472.148 141.075C472.181 140.952 470.833 141.557 469.122 142.453C465.373 144.421 457.308 148.13 451.828 150.44C444.369 153.58 440.421 154.901 433.42 156.576C428.505 157.762 426.257 158.09 426.277 157.663C426.282 157.533 426.981 157.303 427.876 157.133C429.681 156.76 434.771 155.056 437.541 153.873C438.567 153.431 439.69 152.956 440.023 152.833C440.355 152.687 445.998 149.602 452.566 145.938C459.133 142.273 465.715 138.692 467.209 137.98C474.456 134.512 480.667 132.531 487.418 131.543C490.637 131.059 492.28 131.045 493.673 131.477C494.691 131.801 494.944 131.978 495.349 132.68C495.779 133.425 495.795 133.612 495.41 134.746ZM461.379 93.3219C461.28 94.8108 459.997 97.7686 458.43 100.174C456.633 102.921 456.179 103.495 450.57 110.22C444.626 117.324 438.924 124.369 436.169 127.957C434.946 129.518 432.401 132.811 430.514 135.263C428.62 137.742 426.249 140.855 425.278 142.213C424.284 143.572 422.544 145.858 421.402 147.279C420.251 148.706 419.234 149.986 419.157 150.111C419.04 150.248 418.879 150.191 418.764 149.991C418.604 149.714 418.764 149.391 419.443 148.687C420.439 147.593 424.948 141.802 427.748 137.992C428.817 136.543 432.5 131.103 435.948 125.914C442.729 115.659 448.223 107.996 451.031 104.919C451.526 104.357 451.645 103.803 451.221 104.048C450.814 104.283 447.528 107.831 445.978 109.707C442.825 113.526 435.709 123.361 432.16 128.713C431.357 129.962 430.619 130.965 430.56 130.942C430.488 130.937 430.824 130.2 431.305 129.333C431.79 128.453 433.193 125.622 434.408 123.027C441.696 107.55 443.779 103.899 448.042 99.2209C452.093 94.7574 457.207 91.2158 459.732 91.109C460.911 91.0517 461.488 91.8504 461.379 93.3219ZM499.701 164.358C499.752 165.506 499.215 166.116 497.05 167.366C493.872 169.201 490.211 170.38 484.555 171.405C470.614 173.877 457.822 172.902 438.974 167.895C433.151 166.35 432.899 166.253 435.272 166.603C439.348 167.183 442.18 167.349 451.32 167.499C458.666 167.623 461.796 167.525 472.781 166.852C484.311 166.142 487.527 165.832 486.588 165.566C486.438 165.526 482.71 165.588 478.301 165.732C473.905 165.857 469.131 165.969 467.716 165.978C466.287 165.983 463.592 166.015 461.713 166.06C459.847 166.109 457.127 166.098 455.668 166.051C454.22 166.022 450.982 165.974 448.449 165.947C441.175 165.908 435.258 165.399 430.804 164.425C429.869 164.226 429.859 164.209 430.559 164.22C435.288 164.331 437.118 164.302 440.495 164.13C445.299 163.851 447.822 163.48 455.964 161.862C466.231 159.826 471.328 159.135 478.307 158.823C488.943 158.364 495.251 159.329 498.209 161.894C499.276 162.802 499.661 163.469 499.701 164.358ZM441.975 87.5737C441.816 89.1782 440.527 93.225 439.212 96.2474C438.591 97.7721 435.589 103.893 432.601 109.856C426.93 121.155 424.692 125.819 422.634 130.714C421.958 132.282 421.374 133.612 421.322 133.642C421.192 133.717 425.493 118.105 426.288 115.602C427.961 110.341 431.789 101.33 433.439 98.7489C433.892 98.0138 434.255 97.3424 434.2 97.2471C433.92 96.7621 431.474 100.345 429.751 103.742C426.281 110.63 423.717 118.149 420.174 131.834L419.232 135.461L419.568 132.923C419.775 131.522 420.095 129.097 420.307 127.543C421.39 119.619 423.455 109.317 424.804 105.212C426.855 98.9245 428.969 95.106 432.524 91.183C435.314 88.1168 437.833 86.3394 440.171 85.8092C441.669 85.4639 442.163 85.9182 441.975 87.5737ZM482.21 189.202C482.252 189.975 482.122 190.731 481.848 191.235C480.403 193.952 474.04 194.831 466.013 193.449C457.452 191.96 448.036 187.432 439.67 180.761C436.654 178.357 430.589 173.152 430.652 173.001C430.644 172.947 431.658 173.505 432.862 174.23C439.546 178.246 444.605 180.209 455.435 182.906C463.605 184.978 465.851 185.448 468.164 185.695C470.548 185.924 470.498 185.537 468.125 185.106C466.997 184.914 461.557 183.39 456.001 181.748C443.945 178.166 440.567 176.814 432.227 172.229C428.668 170.266 428.361 170.074 429.436 170.515C438.067 174.065 442.62 175.19 457.442 177.463C462.854 178.276 465.905 178.962 469.384 180.106C474.234 181.728 477.903 183.502 479.994 185.285C481.516 186.6 482.111 187.631 482.21 189.202ZM418.385 147.994C418.077 147.94 418.543 147.128 419.162 146.621L419.837 146.07L419.166 147.046C418.803 147.579 418.439 148.008 418.385 147.994ZM417.127 144.575C417.061 144.682 416.946 144.702 416.891 144.607C416.826 144.494 416.871 144.353 416.967 144.298C417.07 144.238 417.168 144.227 417.188 144.262C417.223 144.322 417.195 144.454 417.127 144.575ZM423.2 158.654C422.377 160.088 422.293 161.003 422.828 162.61C423.635 165.008 423.423 165.581 421.873 165.356C420.689 165.185 419.751 164.421 417.849 161.986C416.103 159.761 414.415 158.218 412.881 157.361L412.189 156.963L412.461 156.414C412.618 156.126 412.826 154.725 412.894 153.323C413.095 150.032 413.322 148.965 414.076 147.791C414.699 146.831 415.386 146.261 415.551 146.546C415.591 146.616 415.857 147.675 416.111 148.856C416.653 151.234 417.523 152.821 418.661 153.573C419.004 153.767 420.258 154.579 421.47 155.358C422.672 156.119 423.739 156.888 423.8 157.073C423.851 157.262 423.593 157.954 423.2 158.654ZM426.56 164.774C426.096 164.65 425.736 164.487 425.758 164.406C425.806 164.228 427.234 164.662 427.349 164.861C427.394 164.939 427.051 164.884 426.56 164.774ZM398.674 118.474C398.977 121.139 399.077 125.712 398.882 128.954C398.47 135.901 397.017 141.624 394.29 147.101C393.077 149.499 390.544 153.433 388.606 155.856C386.889 158.002 382.401 163.088 382.241 163.03C382.186 163.016 382.515 162.306 383.005 161.434C383.838 159.937 385.046 157.369 385.705 155.73C385.876 155.308 386.657 152.64 387.449 149.792C388.494 146.002 389.425 143.294 390.86 139.879C391.927 137.288 393.202 134.116 393.688 132.819C394.858 129.684 397.503 120.086 397.902 117.557C398.232 115.369 398.333 115.484 398.674 118.474ZM395.057 123.368C392.716 130.794 391.87 133.129 389.485 138.779C387.896 142.525 387.03 145.046 385.873 149.201C384.183 155.235 382.948 158.315 380.358 163.009C377.92 167.407 377.92 167.407 378.323 165.465C378.792 163.197 379.328 158.626 379.838 152.628C380.411 145.761 380.85 143.141 382.219 138.332C383.966 132.219 385.885 128.663 389.739 124.499C393.258 120.712 395.664 117.96 396.512 116.789L397.329 115.625L397.034 116.834C396.872 117.494 395.988 120.441 395.057 123.368ZM411.252 190.459C408.609 189.942 403.383 189.31 400.446 189.123C396.648 188.926 389.228 189.434 381.735 190.435C374.192 191.429 368.584 191.757 363.777 191.45C360.427 191.248 360.222 191.193 361.773 190.979C364.415 190.596 368.297 189.66 373.789 188.071C381.785 185.741 383.159 185.421 386.525 184.932C394.024 183.859 398.912 184.247 404.366 186.352C405.755 186.878 407.291 187.619 412.616 190.342C413.527 190.82 413.201 190.835 411.252 190.459ZM411.898 192.338C411.111 192.515 407.776 193.459 404.465 194.424C395.467 197.079 392.477 197.72 387.194 198.091C380.341 198.56 373.086 197.795 368.248 196.074C365.967 195.243 361.854 193.38 361.909 193.175C361.913 193.103 362.988 193.164 364.265 193.316C369.01 193.855 374.17 193.613 382.628 192.482C390.041 191.482 396.562 190.996 401.194 191.059C404.099 191.09 413.348 191.79 413.309 191.962C413.293 191.995 412.654 192.167 411.898 192.338ZM438.099 241.701C437.648 242.758 434.199 244.645 430.541 245.868C424.367 247.955 410.99 250.967 400.71 252.641C398.093 253.067 395.275 253.527 394.406 253.682C392.65 253.98 392.59 253.876 394.291 253.483C394.887 253.335 398.312 252.247 401.883 251.052C405.457 249.843 410.627 248.117 413.369 247.226C420.372 244.915 422.989 243.889 422.294 243.725C422.185 243.695 419.043 244.574 407.48 247.786C404.538 248.63 400.559 249.819 398.648 250.448C396.76 251.099 393.57 251.994 391.595 252.453C385.384 253.915 377.115 255.132 376.83 254.639C376.58 254.206 377.052 254.083 380.098 253.86C387.527 253.266 392.741 251.538 406.361 245.129C414.697 241.206 417.938 239.981 422.405 239.076C427.029 238.127 431.178 238.053 434.949 238.843C437.639 239.403 438.678 240.362 438.099 241.701ZM424.903 225.764C424.989 227.273 422.974 229.302 418.739 231.967C416.577 233.342 414.469 234.432 409.456 236.83C405.903 238.535 401.044 240.878 398.664 242.056C396.269 243.208 392.783 244.851 390.903 245.694L387.474 247.235L390.17 245.505C391.667 244.537 393.971 242.987 395.315 242.015C398.78 239.518 404.171 236.036 408.224 233.696C410.147 232.586 411.623 231.641 411.507 231.581C411.128 231.384 406.206 233.799 401.885 236.316C399.443 237.726 395.371 240.273 392.811 241.959C387.717 245.316 385.243 246.791 381.899 248.479C379.085 249.884 379.659 249.299 383.78 246.596C387.585 244.088 389.48 242.589 395.946 237.089C402.26 231.666 403.903 230.371 407.546 227.921C411.974 224.949 415.557 223.516 419.119 223.306C421.085 223.211 422.851 223.53 423.848 224.156C424.742 224.725 424.869 224.906 424.903 225.764ZM443.825 264.098C443.889 264.628 443.769 265.101 443.441 265.533C442.308 267.03 438.672 268.413 434.594 268.909C429.499 269.564 419.414 269.197 412.612 268.136C410.532 267.813 406.76 267.219 404.219 266.839C393.525 265.196 381.56 262.751 381.691 262.259C381.732 262.109 383.5 262.231 385.711 262.502C392.695 263.377 396.962 263.408 403.34 262.635C408.723 261.998 414.343 261.733 419.216 261.933C420.51 261.994 421.654 261.957 421.738 261.862C421.943 261.617 419.421 261.168 416.478 260.951C412.916 260.663 409.077 260.732 401.531 261.243C394.71 261.728 391.576 261.679 385.582 261.098C381.796 260.72 380.629 260.239 383.923 260.405C388.675 260.675 392.216 260.328 403.049 258.611C411.308 257.296 413.523 257.033 419.256 256.702C424.044 256.455 427.756 256.506 430.726 256.87C438.067 257.804 443.407 260.714 443.825 264.098ZM399.52 220.419C399.618 222.73 397.896 226.287 393.881 232.012C391.27 235.69 389.048 238.301 385.728 241.511C382.926 244.237 381.591 245.204 383.153 243.39C383.68 242.763 384.374 241.865 384.693 241.358C386.279 238.964 391.751 229.223 392.78 227.024C392.942 226.665 392.984 226.318 392.877 226.252C392.642 226.146 391.248 228.232 386.652 235.551C383.389 240.76 382.466 242.101 381.06 243.606C379.937 244.82 379.94 244.645 381.092 243.102C382.537 241.124 383.985 238.372 384.977 235.57C388.203 226.757 389.603 223.362 390.472 222.087C392.31 219.432 394.908 217.851 397.123 218.027C398.735 218.159 399.441 218.883 399.52 220.419ZM348.194 154.501C343.352 161.834 342.613 163.473 340.042 172.521C338.958 176.403 337.526 180.983 336.88 182.684C336.249 184.41 335.144 188.177 334.449 191.073C332.465 199.216 332.558 199.197 332.182 191.966C331.768 183.869 331.874 181.532 333.014 176.487C333.357 174.902 333.466 173.731 333.359 172.985L333.153 171.868L334.322 170.893C337.98 167.869 340.174 164.108 339.765 161.561C339.631 160.749 339.717 160.377 340.211 159.653C341.067 158.315 342.832 156.292 344.135 155.089C345.291 154.052 350.187 150.833 350.317 151.058C350.347 151.11 349.402 152.672 348.194 154.501ZM349.27 167.343C348.614 171.648 346.785 178.42 345.727 180.567C345.266 181.468 344.417 182.997 343.84 183.919C342.265 186.41 334.537 197.165 334.342 197.128C334.305 197.103 334.634 196.093 335.104 194.887C335.555 193.668 336.258 191.287 336.649 189.583C337.026 187.876 337.856 185.134 338.46 183.48C339.066 181.849 340.423 177.44 341.444 173.709C342.48 169.982 343.579 166.287 343.859 165.491C344.577 163.494 346.044 160.696 348.083 157.428C349.022 155.894 350.047 154.17 350.39 153.603C350.696 153.033 350.98 152.546 351.041 152.511C351.171 152.436 349.829 163.672 349.27 167.343ZM336.06 131.484C336.006 133.49 334.589 136.756 332.255 140.193C327.509 147.252 315.631 157.539 303.056 165.539C300.497 167.166 292.898 172.165 290.811 173.59C289.799 174.278 289.737 174.29 290.354 173.738C291.615 172.583 294.755 169.142 296.807 166.675C299.526 163.385 304.474 157.815 305.962 156.332C308.147 154.216 312.962 149.877 314.766 148.42C317.172 146.488 317.317 146.359 317.067 146.226C316.363 145.847 309.862 150.628 305.042 155.039C302.825 157.058 298.451 161.962 295.059 166.207C293.713 167.896 292.011 169.987 291.279 170.86L289.931 172.446L289.899 171.83C289.876 171.37 290.14 170.848 290.792 170.056C291.284 169.449 292.674 167.537 293.862 165.835C299.475 157.837 303.083 153.145 307.711 147.782C314.539 139.868 317.853 136.569 321.736 133.934C326.734 130.529 332.285 128.664 334.78 129.567C335.784 129.946 336.103 130.397 336.06 131.484ZM321.945 111.216C321.694 113.22 320.491 116.397 318.417 120.585C316.372 124.722 312.908 130.082 307.354 137.723C298.006 150.591 289.298 163.909 287.498 168.112C287.305 168.617 287.068 168.846 286.844 168.859C286.642 168.849 286.508 168.776 286.522 168.722C286.539 168.631 287.164 167.093 287.862 165.281C288.6 163.481 289.66 160.617 290.282 158.953C292.133 153.959 295.445 146.377 297.132 143.359C298.006 141.792 300.997 137.052 303.8 132.847C306.594 128.647 308.729 125.244 308.571 125.311C308.171 125.439 304.859 129.522 302.094 133.312C299.158 137.328 295.015 143.692 293.994 145.783C292.173 149.548 289.495 156.151 287.483 161.805C285.064 168.675 284.902 169.034 284.427 169.112C284.188 169.158 284.237 168.783 284.641 167.683C284.923 166.851 285.584 164.876 286.078 163.251C287.905 157.196 291.051 147.505 292.39 143.845C296.725 131.874 301.198 124.28 308.42 116.589C312.518 112.248 316.254 109.398 318.732 108.73C321.181 108.112 322.241 108.909 321.945 111.216ZM425.66 290.694C425.705 291.973 424.614 293.203 422.837 293.825C421.263 294.399 417.799 294.54 415.303 294.157C410.392 293.39 405.435 291.124 398.191 286.358C392.252 282.431 388.711 279.718 385.423 276.582C382.39 273.668 376.246 266.708 376.17 266.116C376.123 265.774 376.323 265.901 376.995 266.645C378.305 268.094 380.181 269.643 382.885 271.466C385.798 273.432 388.45 274.765 391.867 275.944C396.214 277.453 403.729 280.689 406.744 282.332C407.504 282.748 408.146 283 408.207 282.885C408.328 282.676 406.602 281.225 404.713 279.994C401.971 278.205 395.533 275.214 391.548 273.912C388.938 273.051 386.477 271.828 383.286 269.802C380.71 268.16 377.609 265.828 377.289 265.274C376.914 264.625 377.531 264.834 379.095 265.882C381.622 267.599 384.527 268.67 394.048 271.302C405.822 274.574 410.417 276.413 415.86 280.002C419.859 282.647 421.507 284.062 423.872 286.819C424.552 287.616 425.624 289.953 425.66 290.694ZM337.395 163.056C336.503 167.29 329.347 172.876 320.988 175.878C315.038 178.031 307.887 179.146 301.123 179.01C298.462 178.941 295.068 179.123 293.839 179.394C293.4 179.474 293.018 179.452 293.025 179.344C293.022 179.219 293.51 179.064 294.061 178.999C297.495 178.587 305.327 176.213 309.695 174.257C315.913 171.487 322.945 167.647 322.128 167.472C322.018 167.442 321.109 167.748 320.118 168.17C319.143 168.583 315.468 170.116 311.976 171.589C305.526 174.297 299.704 176.353 295.399 177.476C293.034 178.08 293.007 178.073 292.795 177.525L292.579 176.992L294.362 176.401C297.419 175.375 302.475 172.733 308.52 169.023C317.575 163.426 321.456 161.428 325.489 160.254C330.412 158.821 334.291 158.879 336.365 160.372C337.354 161.105 337.664 161.862 337.395 163.056ZM300.622 101.923C300.778 104.673 299.501 109.902 297.256 115.713C296.578 117.479 294.334 122.792 292.279 127.512C286.785 140.176 283.954 147.653 282.159 154.244C281.329 157.286 281.299 157.154 281.658 152.097C282.048 146.791 283.156 140.551 284.572 135.703C285.046 134.125 286.692 129.376 288.239 125.134C289.78 120.884 291.237 116.867 291.46 116.173C292.195 113.947 291.466 114.784 290.245 117.59C283.677 132.652 282.517 135.804 281.191 142.147C279.853 148.67 279.265 157.612 279.687 165.463C279.818 167.708 279.949 169.676 279.973 169.859C280.007 170.036 279.966 170.186 279.884 170.164C279.62 170.086 278.99 157.136 279.094 153.715C279.462 139.912 280.798 129.107 283.007 121.792C285.131 114.712 289.082 107.234 292.627 103.455C294.562 101.426 297.785 99.369 298.997 99.4083C299.653 99.445 299.876 99.5706 300.186 100.107C300.396 100.471 300.598 101.301 300.622 101.923ZM379.104 251.617C378.344 251.882 378.007 251.638 378.648 251.268C378.873 251.138 379.83 250.736 380.756 250.34L382.472 249.672L381.113 250.538C380.38 251.007 379.45 251.498 379.104 251.617ZM361.46 215.558C361.497 218.181 360.507 221.927 358.965 225.116C357.144 228.881 353.501 232.393 347.596 236.044C341.64 239.749 337.557 241.217 327.304 243.418C320.403 244.885 318.778 245.35 315.939 246.793C313.751 247.883 313.682 247.923 314.276 247.292C314.618 246.944 315.826 245.877 316.969 244.917C318.77 243.415 319.481 242.947 322.515 241.322C324.448 240.31 327.525 238.799 329.368 238.012C334.956 235.571 339.806 233.071 345.812 229.454C351.696 225.906 353.782 224.379 355.974 221.935C356.917 220.848 359.39 216.972 360.59 214.651C361.194 213.517 361.228 213.475 361.35 213.947C361.412 214.234 361.455 214.949 361.46 215.558ZM356.072 218.946C353.476 222.408 350.877 224.428 343.663 228.593C338.102 231.78 332.636 234.613 328.363 236.491C321.035 239.74 316.866 242.459 313.006 246.512C310.739 248.906 309.651 249.881 309.782 249.389C309.84 249.229 310.337 248.549 310.888 247.885C311.466 247.205 312.691 245.666 313.655 244.417C315.803 241.618 317.673 239.556 320.504 236.86C323.965 233.534 325.843 232.126 330.085 229.654C333.851 227.457 335.954 226.439 343.893 223.01C348.907 220.854 353.808 218.024 357.212 215.32C358.62 214.218 359.893 213.183 360.071 213.011C360.499 212.614 357.652 216.821 356.072 218.946ZM380.145 256.12C378.731 256.451 378.354 256.438 378.174 256.126C378.079 255.962 378.614 255.849 379.7 255.811C380.617 255.778 381.368 255.76 381.344 255.797C381.341 255.833 380.799 255.973 380.145 256.12ZM373.65 254.35C373.623 255.624 374.4 256.85 376.594 258.99C377.564 259.931 378.379 260.742 378.424 260.82C378.454 260.872 377.545 261.477 376.396 262.106C374.366 263.232 374.264 263.314 373.725 264.341C372.581 266.48 372.444 266.663 371.733 266.831C370.824 267.055 369.594 266.726 369.052 266.127C368.83 265.862 368.034 264.105 367.289 262.214C366.271 259.65 365.623 258.268 364.661 256.722C363.426 254.722 363.412 254.638 363.833 254.568C365.035 254.289 365.914 253.932 367.689 252.907C369.854 251.657 372.903 250.417 374.519 250.096L375.581 249.875L374.625 251.639C374.004 252.783 373.674 253.713 373.65 254.35ZM330.493 176.66C329.581 181.401 329.474 185.435 330.046 191.767C330.665 198.558 330.684 199.413 330.213 201.036C329.505 203.35 329.098 203.804 324.584 207.126C310.751 217.307 299.865 226.432 281.458 243.249C277.056 247.245 271.56 252.266 269.249 254.362C265.803 257.495 255.375 267.453 254.164 268.776C253.979 268.975 254.241 268.189 254.742 267.056C257.13 261.532 259.374 253.759 260.588 246.661C260.99 244.339 261.387 242.285 261.489 242.122C261.581 241.942 262.316 241.795 263.355 241.715C266.297 241.471 266.551 241.37 272.016 238.215C277.472 235.065 278.885 234.053 282.051 231.036C286.402 226.873 288.614 223.944 292.859 216.736C296.362 210.765 296.997 209.763 298.619 207.614C300.579 205.028 303.777 201.507 304.728 200.854C305.85 200.137 306.265 199.077 305.785 198.246C305.52 197.787 305.258 197.592 304.853 197.572C303.977 197.535 294.636 199.475 291.827 200.289C288.073 201.347 286.437 202.073 283.63 203.832C279.703 206.33 276.914 209.199 273.921 213.756C271.153 218.021 269.52 221.632 267.262 228.501C266.654 230.388 265.823 232.669 265.404 233.604C264.676 235.202 262.244 238.95 262.002 238.87C261.915 238.84 261.929 238.485 262.002 238.05C262.074 237.616 262.525 234.596 262.988 231.338C264.359 221.794 266.28 212.221 268.005 206.248C269.401 201.447 271.618 194.567 272.232 193.15L272.838 191.76L275.506 190.821C276.964 190.326 279.701 189.507 281.594 189.026C283.478 188.528 285.758 187.858 286.637 187.5C289.442 186.378 291.561 184.288 292.317 181.877L292.686 180.798L296.315 180.943C302.558 181.195 303.434 181.174 307.178 180.918C311.09 180.634 316.804 179.552 320.105 178.489C322.892 177.596 326.773 175.898 329.051 174.583C330.107 173.973 330.976 173.518 331.006 173.569C331.041 173.63 330.797 175.007 330.493 176.66ZM401.667 301.937C402.037 304.16 401.157 305.234 399.04 305.128C395.076 304.922 388.525 300.714 383.567 295.147C381.112 292.396 379.095 289.462 377.242 285.993C375.335 282.429 374.442 279.943 373.401 275.359C372.985 273.579 372.529 271.59 372.399 270.984C372.083 269.758 372.328 269.201 372.684 270.277C373.452 272.547 374.734 275.109 377.172 279.371L379.952 284.186L382.413 286.83C385.275 289.866 390.977 295.003 391.397 294.91C391.809 294.823 391.271 294.152 385.711 287.882L381.003 282.587L377.655 276.748C374.14 270.66 373.577 269.484 374.027 269.224C374.244 269.099 374.539 269.471 375.619 271.342C378.149 275.724 380.053 277.881 387.845 285.218C393.78 290.798 396.709 293.691 398.439 295.706C399.956 297.475 401.371 300.226 401.667 301.937ZM276.054 98.8902C276.975 101.465 276.792 104.307 275.07 113.846C273.478 122.629 273.18 124.672 272.882 128.816C272.564 133.145 272.534 136.153 272.723 140.581C272.793 142.342 272.817 143.703 272.777 143.633C272.732 143.556 272.329 141.317 271.883 138.665C270.725 131.839 270.14 124.487 270.098 116.613C270.089 115.059 270.049 113.708 270.004 113.63C269.364 112.522 269.142 122.719 269.638 130.077C270.036 136.106 270.745 140.834 272.951 152.436C273.817 157.016 274.499 160.837 274.451 160.934C274.434 161.025 274.369 160.912 274.324 160.673C274.174 159.674 272.65 154.434 271.212 149.883C268.305 140.707 266.1 132.189 265.253 126.962C263.752 117.782 264.826 108.502 268.102 101.876C270.304 97.4299 272.91 95.3246 274.631 96.6056C275.321 97.1198 275.553 97.4822 276.054 98.8902ZM287.262 173.422C287.143 175.396 287.591 176.292 289.242 177.232C290.366 177.899 290.376 177.917 290.44 178.746C290.519 179.705 290.1 181.078 289.334 182.271C288.456 183.61 286.406 184.84 283.883 185.511C282.772 185.806 280.784 186.342 279.471 186.707C278.151 187.042 276.301 187.718 275.334 188.183C274.363 188.64 273.554 188.98 273.524 188.928C273.504 188.893 273.512 188.046 273.528 187.055C273.567 186.063 273.367 183.696 273.09 181.777C272.497 177.709 272.426 176.906 272.573 174.501C272.701 172.383 273.427 169.1 273.746 169.193C273.892 169.225 274.629 169.861 275.404 170.603C276.173 171.337 277.075 172.098 277.389 172.263C278.396 172.767 280.152 172.688 283.122 172.013C286.067 171.352 287.011 171.269 287.236 171.658C287.301 171.771 287.319 172.581 287.262 173.422ZM296.682 203.698C294.821 204.876 292.524 206.376 291.627 207.044C286.559 210.824 278.385 220.428 273.477 228.365C272.027 230.715 270.623 232.484 268.254 234.96C267.238 236.02 266.334 236.935 266.282 236.965C266.204 237.01 266.529 236.372 266.995 235.56C267.994 233.829 268.368 232.897 269.621 229.368C271.782 223.131 273.325 219.723 275.516 216.218C279.14 210.454 283.879 206.182 288.783 204.217C291.815 203.009 300.102 200.962 300.092 201.406C300.094 201.509 298.557 202.546 296.682 203.698ZM377.701 338.048C370.609 340.803 366.171 342.257 362.267 343.056C356.392 344.3 348.737 345.001 344.338 344.701C336.979 344.215 328.018 341.075 323.473 337.383C322.636 336.712 321.056 335.476 319.992 334.612C318.91 333.759 318.076 333.074 318.153 333.087C318.208 333.102 320.911 333.804 324.166 334.662C332.564 336.868 336.042 337.332 343.371 337.246C348.192 337.176 350.245 337.272 355.407 337.813C364.617 338.766 366.531 338.92 368.969 338.863C372.501 338.821 375.773 338.468 376.861 338.013C377.951 337.58 378.285 337.48 378.385 337.653C378.415 337.705 378.095 337.89 377.701 338.048ZM277.515 168.08C277.54 168.804 277.498 169.29 277.405 169.17C277.33 169.041 277.263 168.364 277.265 167.647C277.26 165.998 277.455 166.336 277.515 168.08ZM375.472 337.407C375.153 337.394 373.439 337.345 371.654 337.313C367.497 337.254 367.339 337.241 359.403 336.395C350.901 335.508 348.817 335.36 343.927 335.389C336.95 335.445 333.63 335.075 326.721 333.487C322.623 332.55 321.81 332.281 322.923 332.25C323.188 332.248 325.825 331.856 328.768 331.393C334.479 330.486 340.21 329.891 343.563 329.86C344.706 329.858 347.368 329.949 349.474 330.096C354.283 330.426 358.749 331.542 365.018 334.02C367.606 335.043 370.663 336.038 372.65 336.519C374.45 336.957 375.957 337.346 375.982 337.389C376.019 337.414 375.782 337.424 375.472 337.407ZM261.266 141.815C263.034 146.198 265.207 150.983 267.182 154.923C268.31 157.136 269.221 158.954 269.197 159.014C269.19 159.041 268.716 158.38 268.128 157.541C267.534 156.672 266.173 154.836 265.081 153.423C260.387 147.253 256.015 140.401 255.137 137.86C254.657 136.509 254.602 136.414 254.394 136.534C254.307 136.584 254.498 137.513 254.817 138.587C255.951 142.39 259.326 148.016 265.382 156.205C267.151 158.59 269.004 161.319 270.354 163.577C272.652 167.377 272.634 167.387 269.971 163.774C267.718 160.711 264.888 157.31 261.527 153.628C253.472 144.837 251.622 142.453 250.055 138.958C247.829 133.962 247.61 127.864 249.628 126.699C250.65 126.109 253.106 127.982 255.453 131.107C256.751 132.875 260.233 139.248 261.266 141.815ZM295.274 207.64C294.381 208.953 292.19 212.538 290.418 215.628C286.612 222.237 285.855 223.366 282.945 226.605C280.456 229.394 278.419 231.286 276.007 233.048C274.162 234.413 267.732 238.195 267.097 238.296C266.853 238.333 267.251 237.883 268.161 237.058C270.765 234.769 272.927 232.193 275.278 228.665C278.57 223.727 281.437 219.774 283.245 217.726C287.299 213.087 292.427 208.129 295.346 206.005C295.917 205.594 296.664 205.048 296.994 204.799C297.56 204.38 297.56 204.38 297.251 204.824C297.056 205.087 296.183 206.353 295.274 207.64ZM339.565 283.913C338.593 283.77 333.793 281.137 329.695 278.538C323.524 274.63 321.232 273.321 315.639 270.453C308.91 267.017 307.631 266.543 301.058 265.038C299.182 264.608 296.872 263.968 295.933 263.621C294.008 262.907 289.256 260.697 289.421 260.602C289.629 260.482 293.508 260.541 295.706 260.668C300.053 260.977 307.29 262.271 311.156 263.469C319.441 266.018 324.733 269.544 333.622 278.5C334.951 279.822 336.902 281.582 337.973 282.396C339.034 283.215 339.914 283.919 339.952 283.944C339.989 283.969 339.819 283.974 339.565 283.913ZM335.97 285.007C325.742 283.511 320.138 281.966 312.61 278.587C307.044 276.085 303.606 273.751 299.353 269.544C298.091 268.298 296.676 266.968 296.177 266.563C295.291 265.85 295.319 265.857 301.335 267.338C307.957 268.988 309.648 269.616 315.649 272.71C320.739 275.326 322.135 276.125 326.164 278.602C333.179 282.993 334.728 283.796 338.286 284.998C338.838 285.176 339.321 285.371 339.351 285.423C339.381 285.475 337.854 285.271 335.97 285.007ZM254.256 180.215C254.306 180.902 254.202 182.082 254.001 182.833C253.552 184.455 250.309 192.297 250.169 192.055C250.114 191.96 250.234 191.648 250.408 191.35C251.214 190.066 252.265 183.466 251.695 183.299C251.613 183.277 251.476 183.679 251.389 184.168C251.174 185.597 249.513 191.44 249.334 191.37C249.244 191.353 249.272 190.921 249.371 190.414C249.503 189.922 249.749 188.128 249.949 186.454C250.13 184.768 250.564 182.52 250.895 181.474C251.488 179.48 252.581 177.614 253.233 177.503C253.708 177.425 254.123 178.525 254.256 180.215ZM326.92 307.992C326.348 308.622 326.009 308.795 318.17 312.177C314.061 313.961 309.791 315.144 300.198 317.149C295.198 318.189 290.361 319.55 288.832 320.363C287.506 321.025 290.188 319.13 293.296 317.174C297.19 314.718 300.716 313.005 304.791 311.565C308.317 310.291 311.34 309.666 316.934 308.976C321.123 308.452 324.23 307.893 326.627 307.225C327.729 306.913 327.769 307.063 326.92 307.992ZM244.084 172.335C244.439 173.551 244.842 175.05 244.985 175.637C245.343 177.278 247.234 191.752 247.066 191.721C247.001 191.689 246.686 190.463 246.368 188.972C245.595 185.192 245.314 184.327 243.38 179.277C240.602 172.025 240.017 170.711 239.83 171.408C239.768 171.64 240.933 175.679 242.339 179.994C244.098 185.421 244.929 188.44 244.432 187.619C243.749 186.535 239.633 177.687 238.75 175.438C237.76 172.903 237.181 170.42 237.035 167.987C236.915 166.059 237.194 164.962 237.861 164.577C238.415 164.257 239.649 164.654 240.594 165.471C241.688 166.386 243.251 169.433 244.084 172.335ZM320.085 314.213C317.962 315.877 316.978 316.492 314.331 317.927C308.697 320.949 303.487 322.306 296.436 322.612C294.648 322.675 291.534 322.822 289.522 322.898C287.502 322.978 285.834 323.029 285.814 322.995C285.794 322.96 285.941 322.875 286.143 322.805C286.328 322.744 287.401 322.344 288.523 321.927C291.76 320.693 294.577 319.933 300.813 318.654C311.006 316.568 315.202 315.196 321.903 311.823L324.386 310.563L323.503 311.373C323.023 311.823 321.487 313.103 320.085 314.213ZM249.201 195.639C249.284 197.023 248.475 201.981 248.146 202.171C247.626 202.471 242.319 199.219 242.728 198.868C243.757 197.95 244.134 197.282 244.251 196.106C244.388 194.723 244.437 194.648 245.209 194.745C245.529 194.779 246.156 194.545 247.032 194.062C247.759 193.642 248.413 193.334 248.526 193.35C248.795 193.436 249.128 194.572 249.206 195.647L249.201 195.639ZM286.307 261.049C286.177 261.043 285.987 260.934 285.922 260.821C285.847 260.691 285.935 260.664 286.147 260.772C286.564 260.993 286.609 261.071 286.307 261.049ZM243.63 193.07C243.24 193.295 242.779 192.915 242.129 191.789C241.349 190.438 238.486 187.16 235.512 184.189C231.961 180.639 229.806 178.327 228.415 176.636C226.928 174.781 226.716 175.134 228.098 177.188C229.588 179.388 231.815 182.005 235.416 185.723C239.787 190.254 242.852 193.981 242.493 194.361C242.427 194.446 240.207 192.621 237.591 190.31C228.248 182.067 226.561 180.305 224.391 176.546C222.558 173.412 221.367 169.689 221.969 168.972C222.486 168.327 224.282 168.918 226.079 170.271C229.165 172.635 231.956 175.85 236.703 182.612C241.072 188.82 243.74 192.58 243.884 192.75C243.924 192.819 243.829 192.955 243.63 193.07ZM240.437 195.699C238.525 194.528 237.266 193.927 234.812 192.977C231.322 191.631 226.293 188.842 224.789 187.436C224.139 186.83 223.667 186.733 223.977 187.27C224.277 187.789 226.985 189.92 228.557 190.883C230.43 192.007 232.996 193.332 235.823 194.587C238.336 195.7 241.144 197.184 241.107 197.379C241.08 197.452 240.348 197.124 239.508 196.651C238.489 196.085 236.529 195.391 233.889 194.618C229.65 193.416 227.893 192.653 224.848 190.658C221.33 188.324 219.273 186.082 219.407 184.654C219.603 182.474 223.088 184.111 235.599 192.28C241.413 196.07 243.707 197.702 240.437 195.699ZM281.763 293.637C279.86 295.821 275.683 299.907 273.468 301.751C268.633 305.756 261.703 309.953 256.718 311.919C254.468 312.802 249.066 314.385 243.652 315.768C242.164 316.13 239.531 316.83 237.763 317.308C234.027 318.357 234.159 318.165 238.244 316.661C242.343 315.161 244.762 313.891 248.835 311.066C256.141 306.04 264.788 301.117 269.54 299.308C273.777 297.705 274.655 297.267 277.379 295.325C280.291 293.228 281.544 292.158 281.831 291.496C282.001 291.11 281.272 291.507 276.787 294.12C272.494 296.644 271.209 297.317 269.69 297.847C266.359 298.997 263.422 300.45 257.488 303.853C253.401 306.213 250.494 308.018 247.788 309.892C243.526 312.85 242.702 313.302 237.04 315.636C234.968 316.486 232.652 317.476 231.904 317.839L230.53 318.459L232.784 316.465C234.01 315.387 236.379 313.131 238.045 311.476C244.583 304.941 245.527 304.096 249.989 301.104C252.968 299.084 256.513 297.164 259.535 295.858C262.344 294.664 265.385 293.89 271.486 292.838C277.54 291.803 280.193 291.218 283.181 290.255L284.93 289.684L284.197 290.673C283.782 291.236 282.681 292.588 281.763 293.637ZM204.846 172.934C199.033 180.725 194.916 185.134 187.293 191.671C176.458 200.964 173.871 203.624 169.805 209.562C168.567 211.397 167.195 213.84 165.86 216.609C163.809 220.795 162.581 222.809 163.419 220.581C163.623 220.013 164.145 218.338 164.589 216.846C167.828 205.796 169.9 200.166 172.254 195.943C177.576 186.462 183.312 181.176 193.246 176.641C199.446 173.801 201.519 172.731 204.653 170.679C206.311 169.571 207.821 168.526 207.984 168.329C208.87 167.424 207.877 168.864 204.846 172.934ZM245.684 236.028C246.361 237.739 246.74 239.737 247.149 243.565C247.553 247.385 248.195 250.317 249.142 252.957C249.741 254.575 249.783 254.827 249.398 254.461C248.459 253.514 246.846 250.9 245.504 248.095C244.476 245.975 243.781 244.771 242.889 243.566C242.221 242.67 239.689 238.624 237.244 234.608C232.536 226.795 231.31 225.09 228.623 222.496C227.853 221.763 226.808 220.853 226.274 220.469C225.284 219.793 221.569 218.059 219.071 217.133L217.666 216.64L218.609 216.592C225.613 216.243 234.231 220.251 239.775 226.392C241.979 228.791 244.405 232.772 245.684 236.028ZM206.226 175.024C203.999 181.287 202.271 184.975 199.372 189.732C195.109 196.708 190.633 201.856 184.573 206.74C182.487 208.406 181.353 209.142 175.534 212.524C169.544 216.029 167.666 217.217 166.692 218.149C166.153 218.656 168.514 214.164 169.999 211.817C173.465 206.421 177.258 202.349 184.825 195.937C195.484 186.919 200.155 182.109 204.194 175.944C206.038 173.158 207.361 171.309 207.426 171.422C207.446 171.457 206.902 173.075 206.226 175.024ZM305.118 353.95C306.483 357.654 306.876 359.055 306.211 357.903C305.541 356.743 300.79 352.153 297.597 349.563C295.705 348.046 293.404 346.06 292.487 345.192C290.088 342.917 286.128 338.379 284.334 335.812C280.959 331.005 280.007 329.696 278.705 328.081C277.3 326.328 274.794 323.907 273.422 322.99L272.633 322.464L273.507 322.698C274.086 322.861 274.776 323.317 275.588 324.083C277.133 325.559 279.339 327.079 284.386 330.181C291.7 334.689 294.873 337.325 299.666 342.987C299.877 343.212 300.837 344.875 301.832 346.679C303.266 349.303 303.927 350.746 305.109 353.955L305.118 353.95ZM246.313 252.616C246.305 252.644 245.171 251.959 243.772 251.116C239.484 248.488 234.851 244.823 232.867 242.447C231.182 240.429 228.869 236.164 226.884 231.444C224.228 225.184 223.191 223.588 218.9 219.276C217.81 218.208 216.982 217.335 217.073 217.352C217.145 217.356 219.034 218.368 221.283 219.563C226.012 222.075 227.302 223.109 230.564 226.999C232.408 229.213 232.955 230.041 237.103 236.964C239.597 241.125 241.747 244.548 241.865 244.573C242.043 244.62 246.34 252.404 246.313 252.616ZM306.877 360.036C306.669 360.156 300.917 357.715 298.509 356.484C292.351 353.377 287.253 349.126 281.824 342.584C277.911 337.846 276.309 335.111 274.482 330.126C273.896 328.513 273.054 326.413 272.596 325.441L271.784 323.693L273.443 325.207C276.124 327.631 277.169 328.921 282.503 336.5C285.763 341.107 290.154 345.592 295.549 349.856C300.408 353.713 300.654 353.918 303.798 356.883C306.509 359.44 307.006 359.961 306.877 360.036ZM200.028 227.089C199.822 229.632 198.717 234.139 197.54 237.139C194.511 244.973 189.766 251.835 183.462 257.576C181.562 259.285 181.089 259.605 177.25 261.856C172.539 264.576 172.59 264.546 166.297 265.905L162.43 266.728L164.391 265.204C166.555 263.492 168.65 261.44 170.694 259.001C173.631 255.527 174.933 254.163 178.178 251.204C184.85 245.101 186.62 243.225 190.215 238.412C193.147 234.491 197.386 227.933 198.85 225.009L200.13 222.446L200.158 223.815C200.177 224.566 200.113 226.035 200.028 227.089ZM197.501 225.372C194.559 230.477 189.612 237.467 186.321 241.168C184.144 243.638 182.385 245.37 177.843 249.423C175.06 251.943 173.362 253.662 170.099 257.37C167.318 260.534 165.147 262.793 163.55 264.188C161.304 266.177 161.209 266.232 161.496 265.57C161.671 265.192 162.16 263.859 162.603 262.587C164.235 257.973 167.222 251.907 169.388 248.878C170.651 247.086 173.27 244.223 175.2 242.486C177.367 240.519 179.252 239.164 183.894 236.184C190.131 232.167 191.727 230.831 196.283 225.602C199.688 221.72 199.536 221.876 199.109 222.597C198.919 222.948 198.178 224.185 197.501 225.372ZM264.181 348.925C264.008 349.025 260.008 346.577 257.495 344.864C255.738 343.661 253.054 341.412 248.156 337.069C241.064 330.725 238.595 328.849 234.098 326.26C229.978 323.904 228.821 323.141 229.358 323.131C230.055 323.098 236.318 325.025 239.181 326.143C242.386 327.375 247.55 329.96 249.997 331.538C254.027 334.118 255.654 335.916 259.603 342.076C261.126 344.454 262.693 346.828 263.108 347.327C264.035 348.513 264.268 348.875 264.181 348.925ZM214.165 270.334C211.53 270.77 205.074 271.068 200.299 271.019C197.374 270.952 194.178 270.996 193.193 271.091C190.551 271.335 186.824 272.159 182.057 273.502C177.367 274.859 176.255 275.074 171.817 275.546C168.322 275.913 168.3 275.995 172.153 273.308C178.26 268.986 186.587 266.349 194.183 266.305C198.079 266.273 200.787 266.684 205.926 268.105C208.494 268.793 211.576 269.531 212.828 269.72C214.055 269.924 215.074 270.109 215.094 270.144C215.104 270.161 214.684 270.254 214.165 270.334ZM211.056 273.711C202.991 278.021 195.948 280.182 188.472 280.653C184.196 280.928 182.322 280.682 178.275 279.312C176.495 278.688 173.924 277.875 172.62 277.496L170.236 276.828L172.761 276.722C176.288 276.591 177.14 276.445 182.582 274.931C190.414 272.777 193.044 272.413 200.328 272.549C204.694 272.65 210.611 272.34 213.079 271.873C213.851 271.751 214.495 271.667 214.53 271.728C214.56 271.78 212.992 272.663 211.056 273.711ZM234.026 318.415C233.844 318.44 233.874 318.353 234.074 318.238C234.271 318.1 234.414 318.087 234.366 318.184C234.349 318.275 234.186 318.392 234.026 318.415ZM268.468 380.491C267.624 380.528 262.819 379.907 260.936 379.505C259.902 379.293 257.436 378.742 255.433 378.294C248.183 376.637 243.762 376.199 235.565 376.301C225.606 376.451 221.447 376.288 214.91 375.525C213.191 375.328 210.206 375.157 208.278 375.139C206.354 375.106 204.611 375.108 204.401 375.102C203.88 375.08 210.641 372.712 214.75 371.448C225.074 368.27 232.19 367.176 239.654 367.624C244.887 367.928 250.53 369.681 256.097 372.703C257.186 373.31 260.063 375.032 262.456 376.537C264.868 378.054 267.278 379.55 267.838 379.839C269.06 380.495 269.05 380.478 268.468 380.491ZM263.669 383.158C257.115 384.747 250.407 385.988 246.742 386.279C242.991 386.563 238.242 386.498 231.984 386.139C226.3 385.773 223.832 385.419 218.956 384.193C214.411 383.041 212.607 382.177 207.908 378.897C205.953 377.532 204.267 376.392 204.117 376.352C203.957 376.294 203.803 376.187 203.763 376.117C203.708 376.022 204.319 376.062 205.101 376.176C205.876 376.318 208.278 376.559 210.404 376.74C212.555 376.907 215.197 377.183 216.289 377.314C221.106 377.917 226.538 378.106 235.66 377.966C238.158 377.933 240.913 377.924 241.815 377.946C244.61 378.007 250.158 378.776 254.492 379.703C260.827 381.057 263.789 381.587 266.222 381.741C267.427 381.808 268.414 381.896 268.421 381.95C268.414 381.977 266.261 382.527 263.669 383.158ZM144.252 202.341C146.034 206.069 147.676 213.112 148.063 218.524C148.444 224.123 148.001 228.836 146.42 235.996C145.285 241.132 145.283 241.167 145.2 240.765C145.167 240.588 144.752 239.268 144.294 237.835C143.254 234.614 142.302 230.325 141.482 225.025C139.856 214.428 137.856 204.163 136.644 200.325C135.146 195.59 134.339 193.712 131.941 189.599C129.846 185.971 129.588 185.623 128.196 184.233C127.364 183.432 126.712 182.723 126.727 182.668C126.727 182.587 127.747 183.234 128.966 184.066C135.862 188.791 140.251 194.051 144.252 202.341ZM197.739 305.844C195.713 308.954 193.894 311.344 191.953 313.423C187.967 317.699 179.245 323.912 173.444 326.603C170.437 328.016 167.877 328.882 163.542 329.953C161.706 330.413 159.071 331.149 157.69 331.577C154.371 332.649 154.371 332.649 155.646 331.498C156.263 330.945 157.963 329.271 159.404 327.746C160.86 326.248 162.862 324.295 163.855 323.456C167.174 320.604 172.927 317.329 180.212 314.186C184.137 312.485 189.541 309.885 191.464 308.775C193.516 307.59 196.166 305.54 198.268 303.461C199.107 302.653 199.884 301.939 199.988 301.879C200.37 301.681 199.753 302.753 197.739 305.844ZM194.183 305.184C192.082 306.686 187.645 308.901 180.063 312.228C176.028 313.98 174.559 314.736 169.969 317.386C164.815 320.338 164.523 320.553 162.571 322.292C161.45 323.309 159.46 325.324 158.132 326.783C155.623 329.537 152.822 332.366 152.645 332.319C152.395 332.266 153.902 328.036 154.825 326.175C156.212 323.377 159.37 318.667 161.189 316.658C164.405 313.127 169.084 309.652 173.384 307.62C177.2 305.809 178.446 305.528 185.767 304.789C191.192 304.244 194.249 303.76 196.057 303.19L197.309 302.779L196.639 303.339C196.277 303.652 195.175 304.484 194.183 305.184ZM133.831 196.892C134.888 199.803 135.989 203.59 136.602 206.492C137.011 208.3 137.815 212.813 140.431 227.803C141.334 233.009 142.56 237.532 143.984 240.797C144.251 241.44 144.382 241.907 144.259 241.874C143.866 241.754 140.875 238.112 139.33 235.898C135.824 230.844 132.468 224.191 131.017 219.359C129.816 215.318 129.006 210.035 128.604 203.258C128.062 194.079 127.123 189.933 123.959 182.753C123.084 180.799 123.016 180.561 123.449 180.831C123.719 180.998 124.231 181.545 124.568 182.009C124.946 182.484 126.032 183.785 127.027 184.908C128.654 186.786 129.008 187.298 130.887 190.693C132.405 193.442 133.185 195.094 133.831 196.892ZM203.097 344.944C198.89 348.978 196.878 350.532 192.903 352.827C189.099 355 187.404 355.783 181.293 358.179C178.688 359.187 175.279 360.543 173.678 361.19C169.93 362.718 164.397 365.694 162.002 367.446C159.162 369.547 157.829 370.398 159.809 368.828C160.798 368.06 163.285 365.908 165.364 364.05C172.62 357.517 175.521 355.322 179.834 353.052C183.045 351.394 184.769 350.699 190.97 348.62C197.049 346.588 199.6 345.508 203.376 343.328C205.117 342.323 206.527 341.566 206.513 341.621C206.489 341.68 204.967 343.183 203.097 344.944ZM206.017 344.863C203.587 349.753 200.189 354.648 197.193 357.659C194.195 360.626 190.272 362.891 185.058 364.62C181.706 365.735 178.654 366.388 173.397 367.103C171.074 367.439 167.632 368.018 165.755 368.386L162.324 369.084L163.576 368.212C165.067 367.155 170.666 364.292 173.557 363.119C174.715 362.646 178.229 361.253 181.376 360.002L187.11 357.754L192.843 354.444C199.461 350.646 199.803 350.379 203.932 345.871C205.363 344.329 206.628 342.94 206.763 342.735C207.319 341.998 207.047 342.767 206.017 344.863ZM137.339 283.928C138.839 288.027 139.351 291.993 139.374 299.554L139.389 303.299L138.686 302.422C137.384 300.807 134.204 294.699 132.704 290.9C131.956 288.965 130.799 286.18 130.156 284.727C126.377 276.101 119.35 265.331 115.027 261.523C113.242 259.932 109.328 257.411 107.122 256.41C105.92 255.869 106.914 256.091 109.15 256.844C113.774 258.412 119.546 261.65 123.656 264.97C126.274 267.084 129.571 270.654 132.001 274.043C133.468 276.083 136.548 281.798 137.339 283.928ZM129.085 286.211C129.685 287.631 130.525 289.687 130.968 290.794C132.61 295.018 134.258 298.212 136.171 300.965C137.151 302.362 138.218 303.871 138.522 304.318C139.023 304.965 138.639 304.759 135.869 302.883C131.777 300.095 128.908 297.826 126.947 295.829C125.017 293.906 122.353 289.752 120.992 286.634C120.196 284.796 119.809 283.645 117.92 277.854C116.021 271.964 112.681 265.14 109.391 260.481C108.538 259.264 107.871 258.229 107.881 258.166C107.953 257.951 111.369 260.447 113.274 262.107C115.23 263.795 116.61 265.285 118.912 268.252C120.724 270.531 127.557 282.625 129.085 286.211ZM194.395 418.592C194.813 419.655 195.735 422.553 196.484 425.03C197.207 427.522 198.308 431.009 198.91 432.832L199.994 436.109L199.171 435.764C198.389 435.431 198.235 435.243 196.457 432.424C194.474 429.25 193.94 428.623 189.906 424.717C185.446 420.352 183.079 417.412 177.384 409.049C173.772 403.732 172.04 401.453 169.096 398.153C166.929 395.72 163.441 392.458 161.07 390.651C157.351 387.81 150.374 381.526 150.484 381.116C150.506 381.034 150.891 381.182 151.359 381.431C151.818 381.686 153.862 382.527 155.903 383.322C166.73 387.556 170.683 389.962 178.34 396.904C181.761 400.009 187.194 406.179 189.854 409.967C190.944 411.555 193.627 416.622 194.395 418.592ZM132.285 322.595C130.687 324.107 127.998 325.81 126.323 326.408C124.212 327.152 121.113 327.684 116.996 327.993C114.989 328.136 112.747 328.414 112.036 328.582C110.645 328.912 107.519 330.578 105.636 331.977L104.617 332.773L106.117 330.891C108.614 327.775 109.058 327.265 110.192 326.368C112.262 324.653 116.966 322.261 120.162 321.258C120.966 320.99 124.311 320.364 127.623 319.86C130.93 319.348 134.057 318.824 134.581 318.672L135.553 318.434L134.477 319.991C133.888 320.851 132.904 322.007 132.285 322.595ZM128.699 317.923C120.336 319.079 119.11 319.394 114.548 321.613C112.604 322.527 111.349 323.252 110.105 324.178C108.136 325.626 107.684 326.084 106.173 328.388C105.569 329.302 105.046 330.055 104.982 330.045C104.767 329.973 105.717 325.418 106.159 324.423C107.409 321.589 110.097 318.824 112.929 317.489C116.703 315.726 122.863 314.814 127.256 315.384C129.229 315.642 134.342 316.858 134.288 317.063C134.278 317.127 131.765 317.515 128.699 317.923ZM195.923 434.579C187.511 431.55 180.321 426.695 171.599 418.208C166.651 413.398 164.166 410.295 161.334 405.348C159.504 402.179 158.929 400.963 156.663 395.458C155.242 392.018 153.574 388.189 152.965 386.993L151.875 384.805L153.496 386.433C155.013 387.982 156.435 389.204 161.253 393.109C166.588 397.43 170.932 402.393 176.149 410.108C181.288 417.73 184.018 421.038 189.072 425.833C192.616 429.191 194.551 431.423 196.42 434.42L196.711 434.864L195.923 434.579Z" fill="#E8D5C0"/>
</svg>
